# xmcd
#
# Track frame offsets: 
#        150
#        9983
#        21509
#        32164
#        42347
#        55928
#        66583
#        78672
#        88665
#        100000
#        111972
#        124854
#        135300
#
# Disc length: 1932 seconds
#
# Revision: 0
# Processed by: cddbd v1.5.2PL0 Copyright (c) Steve Scherf et al.
# Submitted via: ExactAudioCopyFreeDBPlugin 1.0
#
DISCID=ae078a0d
DTITLE=Junior Wells - Sexy Bitch -1- Stylin' and Profilin'
DYEAR=2018
DGENRE=Blues
TTITLE0=Lovey Dovey Lovey One
TTITLE1=Little By Little
TTITLE2=Come On In This House
TTITLE3=Messin' With The Kid
TTITLE4=She's A Sweet One
TTITLE5=I Need Me A Car
TTITLE6=I'm A Stranger
TTITLE7=So Tired
TTITLE8=Universal Rock
TTITLE9=Two Headed Woman
TTITLE10=I Could Cry
TTITLE11=The Things I'd Do For You
TTITLE12=Love Me
EXTD=
EXTT0=
EXTT1=
EXTT2=
EXTT3=
EXTT4=
EXTT5=
EXTT6=
EXTT7=
EXTT8=
EXTT9=
EXTT10=
EXTT11=
EXTT12=
PLAYORDER=
